<svg width="109" height="186" viewBox="0 0 109 186" fill="none" xmlns="http://www.w3.org/2000/svg">
<g opacity="0.5">
<path d="M50.08 177.649C67.7986 184.467 72.7914 146.809 76.466 134.616C81.3303 116.131 90.821 77.6126 94.186 59.415C97.7551 40.5401 88.7268 40.0359 73.6322 36.2258C59.8329 32.806 45.8295 30.0637 32.0301 26.6439C25.3529 25.3705 13.257 20.9862 7.05559 22.8119C-1.28998 24.7302 -1.38866 32.0896 -3.83839 40.2183C-11.1538 66.8312 -16.7292 94.7074 -22.7494 121.711C-25.164 132.067 -30.9152 148.806 -24.1325 156.762C-21.507 159.77 -13.7387 162.111 -9.85456 163.281L50.08 177.649Z" fill="#225A66"/>
</g>
<path d="M45.8857 171.952C63.6044 178.769 68.5971 141.112 72.2717 128.919C77.136 110.434 86.6267 71.9151 89.9917 53.7175C93.5608 34.8426 84.5325 34.3384 69.438 30.5283C55.6386 27.1085 41.6352 24.3662 27.8359 20.9464C21.1586 19.673 9.0627 15.2887 2.86131 17.1144C-5.48426 19.0327 -5.58294 26.3921 -8.03267 34.5208C-15.3481 61.1337 -20.9235 89.0099 -26.9437 116.013C-29.3583 126.369 -35.1095 143.109 -28.3267 151.064C-25.7013 154.072 -17.933 156.413 -14.0488 157.584L45.8857 171.952Z" fill="#A53432"/>
<path d="M49.2913 170.022C67.0113 176.84 72.0041 139.183 75.6786 126.99C80.543 108.505 90.0323 69.9858 93.3973 51.7882C96.9664 32.9132 87.9381 32.4091 72.8436 28.599C59.0456 25.1796 45.0421 22.4372 31.2428 19.0175C24.5642 17.7436 12.4683 13.3594 6.26689 15.185C-2.07868 17.1034 -2.17736 24.4628 -4.62709 32.5915C-11.9411 59.2048 -17.5179 87.0806 -23.5381 114.084C-25.9514 124.44 -31.7039 141.179 -24.9198 149.135C-22.2957 152.143 -14.5274 154.484 -10.6433 155.654L49.2913 170.022Z" fill="#FCEEB8"/>
<path d="M49.2913 170.022C67.0113 176.84 72.0041 139.183 75.6786 126.99C80.543 108.505 90.0323 69.9858 93.3973 51.7882C96.9664 32.9132 87.9381 32.4091 72.8436 28.599C59.0456 25.1796 45.0421 22.4372 31.2428 19.0175C24.5642 17.7436 12.4683 13.3594 6.26689 15.185C-2.07868 17.1034 -2.17736 24.4628 -4.62709 32.5915C-11.9411 59.2048 -17.5179 87.0806 -23.5381 114.084C-25.9514 124.44 -31.7039 141.179 -24.9198 149.135C-22.2957 152.143 -14.5274 154.484 -10.6433 155.654L49.2913 170.022Z" fill="#FCEEB8"/>
<path d="M52.6404 169.246C70.3604 176.064 75.3531 138.407 79.0277 126.214C83.892 107.729 93.3813 69.2099 96.7463 51.0123C100.315 32.1374 91.2872 31.6332 76.1927 27.8231C62.3933 24.4033 48.3912 21.6614 34.5919 18.2416C27.9132 16.9678 15.8173 12.5835 9.61595 14.4092C1.27038 16.3275 1.1717 23.6869 -1.27803 31.8156C-8.59206 58.4289 -14.1689 86.3047 -20.1891 113.308C-22.6023 123.664 -28.3548 140.403 -21.5707 148.359C-18.9466 151.367 -11.1783 153.708 -7.29419 154.879L52.6404 169.246Z" fill="#D33F37"/>
<path d="M8.65605 20.5558C9.08516 19.1319 10.5869 18.3269 12.0094 18.7556C13.4333 19.1847 14.2383 20.6864 13.8096 22.1089C13.3805 23.5328 11.8788 24.3379 10.4563 23.9092C9.03336 23.4818 8.22694 21.9797 8.65605 20.5558Z" fill="#722727"/>
<path d="M21.2574 22.8756C21.6865 21.4518 23.1882 20.6467 24.6107 21.0754C26.0346 21.5045 26.8397 23.0062 26.411 24.4288C25.9819 25.8526 24.4801 26.6577 23.0576 26.229C21.6347 25.8016 20.8283 24.2995 21.2574 22.8756Z" fill="#722727"/>
<path d="M33.9385 26.2348C34.3676 24.8109 35.8693 24.0058 37.2918 24.4345C38.7157 24.8636 39.5207 26.3654 39.092 27.7879C38.6629 29.2117 37.1612 30.0168 35.7387 29.5881C34.3148 29.159 33.5093 27.6586 33.9385 26.2348Z" fill="#722727"/>
<path d="M46.5766 29.1728C47.0057 27.749 48.5074 26.9439 49.9299 27.3726C51.3538 27.8017 52.1589 29.3034 51.7301 30.7259C51.301 32.1498 49.7993 32.9549 48.3768 32.5262C46.9543 32.0975 46.1475 30.5967 46.5766 29.1728Z" fill="#722727"/>
<path d="M59.1779 31.4926C59.607 30.0688 61.1087 29.2637 62.5312 29.6924C63.9551 30.1216 64.7602 31.6233 64.3315 33.0458C63.9024 34.4696 62.4006 35.2747 60.9781 34.846C59.5556 34.4173 58.7488 32.9165 59.1779 31.4926Z" fill="#722727"/>
<path d="M71.8594 34.8506C72.2885 33.4267 73.7903 32.6217 75.2128 33.0504C76.6367 33.4795 77.4417 34.9812 77.013 36.4037C76.5839 37.8276 75.0822 38.6327 73.6596 38.204C72.2354 37.7762 71.4303 36.2745 71.8594 34.8506Z" fill="#722727"/>
<path d="M83.4875 38.355C83.9166 36.9311 85.4183 36.1261 86.8409 36.5548C88.2647 36.9839 89.0698 38.4856 88.6411 39.9081C88.212 41.332 86.7102 42.1371 85.2877 41.7083C83.8634 41.2806 83.0584 39.7789 83.4875 38.355Z" fill="#722727"/>
<path d="M19.6909 12.8821C18.9728 10.9691 16.9714 9.74969 14.9352 10.0774C12.727 10.4316 11.1844 12.0638 10.6687 14.1768C11.1649 14.0899 11.6823 14.0257 12.2312 13.999C13.4618 11.1512 17.5028 10.2616 18.5641 13.973C18.615 14.1524 18.644 14.3355 18.67 14.5192C19.2141 18.1812 15.0186 22.2414 11.438 20.6569C10.605 20.2876 10.2071 21.647 11.0297 22.0117C15.5967 24.0353 20.1861 19.2515 20.0547 14.774C20.0351 14.1281 19.9195 13.4918 19.6909 12.8821Z" fill="#636363"/>
<path d="M32.2921 15.2018C31.5741 13.2889 29.5726 12.0695 27.5364 12.3972C25.6744 12.6961 24.2875 13.9097 23.5871 15.5474C24.0725 15.6626 24.5527 15.7807 25.0338 15.9006C26.4582 13.3905 30.1574 12.7673 31.1653 16.2928C31.2789 16.6906 31.319 17.0972 31.3178 17.5032C31.3092 20.9691 27.4021 24.4645 24.0392 22.9767C23.2062 22.6074 22.8083 23.9668 23.6309 24.3315C27.9544 26.2462 32.2838 22.0653 32.6241 17.8171C32.6968 16.9287 32.6043 16.0393 32.2921 15.2018Z" fill="#636363"/>
<path d="M44.972 18.5605C44.254 16.6476 42.2525 15.4282 40.2163 15.7559C38.4443 16.0406 37.1 17.1473 36.3669 18.6628C36.8655 18.7835 37.3675 18.8978 37.8647 19.0181C39.3834 16.7152 42.8698 16.2438 43.8452 19.6515C43.921 19.9197 43.9639 20.1942 43.988 20.4674C44.2932 24.0544 40.2099 27.8795 36.7195 26.334C35.8865 25.9648 35.4886 27.3242 36.3112 27.6888C40.7675 29.6628 45.229 25.1567 45.322 20.7779C45.3381 20.0231 45.2394 19.2721 44.972 18.5605Z" fill="#636363"/>
<path d="M57.6114 21.4992C56.8934 19.5862 54.8915 18.3682 52.8557 18.6945C51.0838 18.9792 49.7362 20.0865 49.0059 21.6028C49.5083 21.7158 50.012 21.8291 50.5148 21.9408C52.0379 19.6525 55.5116 19.189 56.4847 22.5901C56.5524 22.8263 56.5979 23.0676 56.6242 23.309C57.0125 26.9241 52.8806 30.832 49.3585 29.274C48.5255 28.9047 48.1276 30.2641 48.9502 30.6288C53.4432 32.6183 57.9468 28.0214 57.9655 23.6098C57.9679 22.8908 57.8652 22.1771 57.6114 21.4992Z" fill="#636363"/>
<path d="M70.2127 23.8191C69.4946 21.9061 67.4928 20.688 65.457 21.0144C63.5126 21.3269 62.0831 22.6326 61.4159 24.3808C61.8962 24.4886 62.3742 24.5942 62.8541 24.7034C64.1962 22.0399 68.0531 21.3002 69.0859 24.91C69.2045 25.3255 69.246 25.7519 69.2391 26.1769C69.1874 29.6238 65.3041 33.0747 61.9602 31.5925C61.1271 31.2232 60.7293 32.5826 61.5519 32.9473C65.8558 34.8532 70.1699 30.7135 70.5439 26.4859C70.6215 25.5812 70.532 24.6719 70.2127 23.8191Z" fill="#636363"/>
<path d="M82.8929 27.1764C82.1748 25.2635 80.173 24.0454 78.1372 24.3718C76.334 24.6619 74.9741 25.8052 74.2535 27.3629C74.7467 27.482 75.2441 27.592 75.7364 27.7138C77.224 25.3424 80.7801 24.821 81.7661 28.2674C81.8572 28.583 81.8957 28.9064 81.9122 29.2291C82.0971 32.774 78.0836 36.4753 74.6404 34.9499C73.8074 34.5806 73.4095 35.94 74.2321 36.3047C78.6312 38.2526 83.0341 33.8869 83.2358 29.5645C83.2735 28.7527 83.1806 27.943 82.8929 27.1764Z" fill="#636363"/>
<path d="M94.521 30.6808C93.8029 28.7679 91.801 27.5498 89.7652 27.8761C88.1626 28.1335 86.9149 29.0713 86.1486 30.3685C86.6571 30.5202 87.1469 30.6797 87.6274 30.8408C89.237 28.8002 92.4651 28.514 93.3959 31.7708C93.5867 32.4372 93.5973 33.1275 93.4791 33.8042C92.9242 36.9695 89.3656 39.8236 86.2702 38.4533C85.4372 38.084 85.0393 39.4434 85.8619 39.8081C89.6638 41.4918 93.4678 38.456 94.5634 34.8108C94.9728 33.4475 95.0168 32.0022 94.521 30.6808Z" fill="#636363"/>
<path d="M64.1213 80.3085C75.9362 83.8011 75.1959 75.082 76.2351 72.4869C77.3698 68.4914 79.3175 60.1553 79.5459 56.1217C79.8289 51.9612 74.2178 50.8716 64.4866 48.3306C55.5527 46.0077 46.5076 43.8138 37.4773 41.4677C33.1262 40.4194 25.0081 38.0084 21.2407 37.7597C16.0981 37.2931 16.7641 39.0795 16.0037 40.7937C13.951 46.5016 13.1388 52.7519 11.9434 58.7729C11.4143 61.0828 9.35549 64.6239 14.5629 67.3371C16.5687 68.3657 21.8341 69.7782 24.4611 70.4812L64.1213 80.3085Z" fill="#FCEEB8"/>
<path d="M62.934 78.6635C73.9546 81.9227 73.2225 73.9317 74.1755 71.5588C75.2118 67.9046 76.9854 60.2786 77.1766 56.584C77.4201 52.7752 72.1892 51.7485 63.1136 49.371C54.7817 47.1985 46.3453 45.1422 37.9255 42.9476C33.8677 41.9656 26.2964 39.7163 22.7846 39.4678C17.9929 39.0139 18.6219 40.6532 17.9235 42.2205C16.0415 47.4405 15.3151 53.1609 14.2311 58.6702C13.7522 60.784 11.851 64.0179 16.7159 66.5288C18.5892 67.4821 23.5014 68.8014 25.9508 69.4612L62.934 78.6635Z" stroke="#A53432" stroke-width="0.5" stroke-miterlimit="10"/>
<path d="M22.9963 64.0191C24.7272 58.727 26.4562 53.4358 28.1853 48.1447C27.7365 48.0256 27.289 47.907 26.8397 47.7894C28.0834 53.4651 29.4022 59.3084 31.6916 64.6623C31.8044 64.9254 32.9352 65.4494 33.0372 65.0176C34.3144 59.6567 35.5912 54.2972 36.8684 48.9363C36.9665 48.5225 35.6099 48.13 35.5218 48.501C34.2432 53.8614 32.9678 59.2213 31.6906 64.5822C32.1395 64.7012 32.587 64.8198 33.0362 64.9375C30.7455 59.5831 29.4284 53.7389 28.1843 48.0645C28.1151 47.7451 26.967 47.3179 26.8387 47.7092C25.1079 53.0014 23.3788 58.2926 21.6497 63.5838C21.5239 63.967 22.8701 64.4038 22.9963 64.0191Z" fill="#231F20"/>
<path d="M41.167 56.347C36.6893 55.3315 34.1763 62.5766 37.7858 64.9871C40.0149 66.4761 42.5871 65.1986 43.4723 62.8348C43.9782 61.4799 43.9898 59.9213 43.588 58.5426C43.3122 57.5994 42.3623 57.1225 41.6254 56.562C40.9547 56.051 40.6485 56.5277 41.3059 57.0288C41.5256 57.197 41.7454 57.3651 41.9655 57.532C42.1171 57.6471 42.2681 57.7636 42.4183 57.8783C42.828 58.1909 42.1595 57.3983 42.4168 58.0892C42.804 59.1191 42.6855 60.3558 42.4792 61.408C42.2473 62.5942 41.5983 63.7375 40.5257 64.335C39.8398 64.7179 38.4569 65.0209 37.9164 64.289C36.0287 61.731 38.3558 56.4707 41.7656 57.2442C42.4838 57.4059 41.514 56.4264 41.167 56.347Z" fill="#231F20"/>
<path d="M49.0189 49.5404C48.6128 56.4584 45.7212 62.8904 45.133 69.7801C45.0929 70.2468 46.4072 70.637 46.4335 70.339C47.0246 63.3955 49.9222 56.9092 50.3339 49.9382C50.3551 49.5589 49.0468 49.0848 49.0189 49.5404Z" fill="#231F20"/>
<path d="M43.6459 53.8783C46.6652 54.2016 49.6859 54.5105 52.6833 55.0044C53.5883 55.1545 52.6652 54.3339 52.237 54.264C49.141 53.7536 46.0224 53.4315 42.9029 53.0973C42.1809 53.0216 43.2979 53.8414 43.6459 53.8783Z" fill="#231F20"/>
<path d="M52.1981 65.2351C54.5493 66.059 57.0387 66.1545 59.4297 66.8071C59.524 66.8326 59.7919 66.9148 59.8568 66.7777C61.9376 62.2812 55.2847 58.9063 52.0892 62.056C50.1761 63.9416 49.4914 67.4445 51.8099 69.2989C54.0028 71.0549 57.0101 71.2119 59.6937 70.9034C60.2229 70.8442 59.1658 69.9877 58.7933 70.0321C56.6549 70.2773 53.1374 70.5088 51.9056 68.3243C50.7035 66.1931 52.3449 63.1543 54.2881 62.1202C56.0077 61.205 58.4938 61.7236 59.013 63.7717C59.1656 64.3734 59.1782 66.0087 58.2631 65.8039C56.1179 65.3214 53.9221 65.1783 51.8368 64.4479C50.9762 64.1457 51.8001 65.0945 52.1981 65.2351Z" fill="#231F20"/>
<path d="M68.6694 64.5113C68.9282 61.8923 65.1421 61.431 63.3728 62.1924C62.4576 62.586 61.478 63.2765 61.7142 64.3807C61.9322 65.3981 63.2172 66.1755 63.9913 66.7354C65.3168 67.692 67.9601 70.2487 65.4398 71.4813C63.5208 72.4207 61.6939 70.9997 62.6569 68.986C62.7966 68.6941 61.467 68.3052 61.2678 68.721C59.5761 72.2501 65.6683 73.5379 67.5238 71.2892C68.822 69.7179 66.6182 67.6498 65.4603 66.8235C64.611 66.2188 63.1066 65.39 63.0432 64.2078C62.9372 62.24 67.5413 61.5807 67.279 64.246C67.238 64.6711 68.6311 64.8884 68.6694 64.5113Z" fill="#231F20"/>
</svg>
