<svg width="120" height="177" viewBox="0 0 120 177" fill="none" xmlns="http://www.w3.org/2000/svg">
<rect width="120" height="177" fill="#1E1E1E"/>
<g id="STARCARE" clip-path="url(#clip0_0_1)">
<rect width="1440" height="6322" transform="translate(-1320 -3720)" fill="white"/>
<g id="Group 1597883025">
</g>
<g id="Group">
<g id="Group_2" opacity="0.5">
<path id="Vector" d="M150.752 88.6949L150.397 88.1245C147.26 83.079 143.811 77.5532 140.235 71.834L118.246 36.5834L116.274 33.4219L115.662 32.4421C112.111 26.7018 108.979 21.5903 106.549 17.5444C106.527 17.5064 106.493 17.4605 106.453 17.4111C105.753 16.5348 102.477 13.8447 98.9017 11.2081C97.0261 9.82505 95.07 8.45632 93.3613 7.37438C93.2799 7.32239 93.7846 10.18 94.5607 13.7974C95.1019 16.3294 95.7792 19.2286 96.4782 21.7689C95.0674 20.5126 92.6405 18.5789 90.051 16.6692C88.1753 15.2861 86.2192 13.9174 84.5105 12.8355C84.4291 12.7835 84.9338 15.6411 85.7099 19.2584C86.328 22.1437 87.1184 25.5042 87.9215 28.2683C86.8086 27.1465 83.8775 24.7708 80.7083 22.4338C78.8326 21.0507 76.8773 19.6815 75.1678 18.6001C75.0864 18.5481 75.5911 21.4057 76.3672 25.023C77.0054 28.0017 77.8275 31.4918 78.6564 34.3034C77.7282 33.2886 74.6231 30.7547 71.2502 28.2685C69.3745 26.8854 67.4192 25.5161 65.7106 24.4342C65.6283 24.3827 66.1339 27.2398 66.9091 30.8577C67.5472 33.8363 68.3694 37.3265 69.1983 40.1381C68.2701 39.1233 65.1659 36.5888 61.7929 34.1026C59.9172 32.7195 57.962 31.3502 56.2533 30.2683C56.1719 30.2163 56.6758 33.0745 57.4519 36.6918C58.09 39.6704 58.9122 43.1606 59.741 45.9722C58.8129 44.9574 55.7078 42.4234 52.3348 39.9372C50.4591 38.5541 48.5039 37.1849 46.7952 36.1029C46.7129 36.0515 47.2185 38.9086 47.9937 42.5264C48.6319 45.505 49.4541 48.9952 50.2829 51.8068C49.3548 50.792 46.2496 48.2581 42.8775 45.7713C41.0019 44.3882 39.0458 43.0195 37.3371 41.9376C37.2548 41.8861 37.7604 44.7432 38.5356 48.3611C39.1738 51.3397 39.996 54.8299 40.8248 57.6414C39.8975 56.6261 36.7915 54.0927 33.4194 51.606C31.5438 50.2229 29.5877 48.8542 27.879 47.7722C27.7967 47.7208 28.3023 50.5779 29.0775 54.1957C29.7157 57.1743 30.5379 60.6645 31.3667 63.4761C30.4394 62.4608 27.3334 59.9273 23.9613 57.4406C22.0857 56.0575 20.1295 54.6888 18.4209 53.6069C18.3395 53.5549 18.8442 56.4125 19.6194 60.0304C20.2375 62.9156 21.0279 66.2761 21.831 69.0402C20.7182 67.9184 17.787 65.5427 14.6178 63.2058C12.7421 61.8226 10.786 60.4539 9.07735 59.372C8.99592 59.32 9.50066 62.1776 10.2767 65.795C10.9169 68.7864 11.744 72.2959 12.5765 75.1134C12.6272 75.1938 12.6952 75.3058 12.7729 75.4317C13.5168 76.6413 16.9747 82.3064 21.8668 90.3074L21.7324 90.3903L22.3389 91.3733L51.9658 139.39C53.6486 142.121 55.2801 144.765 56.8372 147.285L57.1533 147.797C63.4116 157.921 68.3998 165.912 70.3826 168.905C70.7523 169.464 71.0801 169.951 71.3639 170.358C71.4761 170.519 71.5823 170.672 71.6799 170.809C73.2675 172.997 74.0813 174.305 76.6141 173.637C76.6508 173.626 76.6899 173.612 76.7275 173.6C78.1851 173.14 79.9475 172.112 81.138 170.844C81.6536 170.293 82.0638 169.699 82.2897 169.086C82.5935 168.623 82.1813 167.307 81.2015 165.292C82.674 167.329 83.5217 168.514 85.9568 167.873C85.9935 167.862 86.0326 167.847 86.0694 167.836C87.527 167.376 89.2893 166.348 90.4798 165.08C90.9963 164.528 91.4057 163.935 91.6315 163.322C91.9494 162.836 91.4898 161.426 90.4086 159.247C90.3275 159.083 90.2379 158.91 90.1498 158.738C90.1549 158.745 90.1601 158.753 90.1647 158.759C90.2761 158.92 90.3823 159.073 90.4798 159.21C92.0674 161.399 92.8812 162.706 95.4149 162.038C95.4516 162.027 95.4907 162.012 95.5275 162.002C96.9851 161.542 98.7474 160.513 99.9379 159.245C100.454 158.694 100.864 158.1 101.09 157.487C101.408 157.001 100.948 155.591 99.8667 153.413C99.7861 153.25 99.6976 153.077 99.61 152.907C99.614 152.912 99.6188 152.919 99.6219 152.924C99.7333 153.086 99.8404 153.238 99.9379 153.376C101.526 155.564 102.339 156.871 104.873 156.203C104.91 156.193 104.949 156.178 104.986 156.167C106.444 155.706 108.206 154.678 109.396 153.41C109.912 152.859 110.322 152.266 110.548 151.653C110.866 151.166 110.406 149.757 109.325 147.578C109.244 147.415 109.155 147.242 109.067 147.071C109.071 147.077 109.075 147.084 109.08 147.09C109.191 147.251 109.298 147.404 109.396 147.541C110.984 149.729 111.797 151.037 114.331 150.369C114.368 150.358 114.407 150.343 114.444 150.332C115.902 149.872 117.665 148.843 118.855 147.575C119.371 147.024 119.781 146.43 120.007 145.818C120.324 145.332 119.865 143.922 118.783 141.743C118.702 141.58 118.614 141.408 118.526 141.237C118.53 141.242 118.535 141.25 118.538 141.255C118.65 141.417 118.757 141.569 118.854 141.706C120.442 143.895 121.256 145.202 123.789 144.534C123.826 144.523 123.865 144.509 123.902 144.498C125.359 144.038 127.122 143.009 128.312 141.741C128.829 141.19 129.238 140.596 129.464 139.983C129.782 139.497 129.322 138.087 128.241 135.909C128.161 135.747 128.073 135.575 127.985 135.405C127.989 135.409 127.994 135.416 127.997 135.421C128.108 135.583 128.215 135.735 128.313 135.873C129.9 138.061 130.714 139.368 133.247 138.701C133.285 138.689 133.324 138.675 133.36 138.664C134.818 138.204 136.58 137.175 137.771 135.907C138.287 135.356 138.697 134.763 138.923 134.15C139.24 133.664 138.781 132.254 137.699 130.075C137.618 129.912 137.528 129.738 137.44 129.566C137.444 129.573 137.45 129.581 137.454 129.587C137.565 129.749 137.672 129.901 137.769 130.039C139.357 132.227 140.171 133.535 142.703 132.867C142.741 132.856 142.78 132.841 142.817 132.83C144.274 132.37 146.037 131.342 147.227 130.074C147.744 129.522 148.153 128.929 148.379 128.316C148.683 127.853 148.271 126.537 147.291 124.522C148.763 126.558 149.611 127.744 152.046 127.103C152.083 127.092 152.122 127.077 152.159 127.066C153.616 126.606 155.379 125.577 156.569 124.31C157.085 123.759 157.495 123.165 157.721 122.552C157.905 122.272 157.821 121.673 157.517 120.807C158.376 121.693 159.291 122.065 160.897 121.642C160.934 121.63 160.973 121.616 161.009 121.605C162.467 121.145 164.23 120.116 165.42 118.848C165.936 118.297 166.346 117.704 166.572 117.091C166.89 116.605 166.43 115.195 165.349 113.016C165.109 112.532 164.838 112.011 164.537 111.451C162.823 108.249 157.559 99.6505 150.752 88.6949Z" fill="#225A66"/>
</g>
<g id="Group_3" opacity="0.5">
<path id="Vector_2" d="M146.975 87.9542L52.7732 146.078L17.9592 89.6552L111.89 31.6983L146.975 87.9542Z" fill="#225A66"/>
</g>
<g id="Group_4">
<g id="Group_5">
<g id="Group_6">
<g id="Group_7">
<path id="Vector_3" d="M20.1693 67.0422C20.1727 67.0401 20.1783 67.0378 20.1822 67.0365C20.5478 66.8768 20.9074 66.7054 21.2622 66.5264C21.3069 66.5036 21.354 66.4828 21.4003 66.4588C21.7592 66.275 22.1127 66.0804 22.4587 65.8775C22.4868 65.8602 22.5154 65.8437 22.5445 65.8281C22.9065 65.6129 23.2625 65.3862 23.606 65.1508C23.612 65.1471 23.6171 65.144 23.623 65.1403C23.9771 64.8971 24.3209 64.645 24.653 64.3814C25.0198 64.0904 25.3683 63.7849 25.7038 63.4698C25.8238 63.3558 25.9494 63.2431 26.0642 63.1264C26.1792 63.012 26.2886 62.894 26.397 62.7765C26.6533 62.4986 26.9043 62.218 27.1308 61.9243C26.431 61.0471 23.1543 58.357 19.5798 55.7213C18.3573 56.787 16.8217 57.6347 15.2388 58.3105C15.8798 61.3014 16.706 64.8115 17.5385 67.629C17.5893 67.7093 17.6567 67.8205 17.7349 67.9473C18.1465 67.8202 18.5595 67.6782 18.9694 67.5275C19.3726 67.3774 19.773 67.215 20.1693 67.0422Z" fill="#FAB697"/>
</g>
<path id="Vector_4" d="M19.5803 55.7221C17.7047 54.339 15.7485 52.9703 14.0399 51.8884C13.9585 51.8364 14.4632 54.694 15.2384 58.3119C16.8222 57.6355 18.3578 56.7878 19.5803 55.7221Z" fill="#513224"/>
<path id="Vector_5" d="M20.1693 67.0422C19.7725 67.2142 19.3726 67.3774 18.9699 67.5284C19.3737 67.3791 19.773 67.215 20.1693 67.0422Z" fill="#D33F37"/>
<path id="Vector_6" d="M26.0642 63.1264C26.1782 63.0102 26.2891 62.8948 26.3971 62.7765C26.2886 62.894 26.1793 63.0119 26.0642 63.1264Z" fill="#D33F37"/>
<path id="Vector_7" d="M25.7038 63.4698C25.3686 63.7835 25.0201 64.089 24.653 64.3814C25.0198 64.0904 25.3699 63.7874 25.7038 63.4698Z" fill="#D33F37"/>
<path id="Vector_8" d="M27.2271 62.0575C27.204 62.0201 27.1707 61.9736 27.1313 61.9251C26.904 62.2193 26.6557 62.5006 26.3975 62.7773C26.2891 62.8948 26.1778 63.0116 26.0647 63.1272C25.9476 63.2441 25.8249 63.3575 25.7043 63.4706C25.3707 63.7869 25.0212 64.0907 24.6535 64.3822C24.3215 64.6459 23.9781 64.8988 23.6235 65.1411C23.6176 65.1448 23.6125 65.1479 23.6065 65.1516C23.2613 65.3881 22.9084 65.6141 22.545 65.8289C22.5164 65.8454 22.4878 65.8618 22.4592 65.8783C22.1118 66.0809 21.7603 66.2767 21.4008 66.4597C21.3545 66.4836 21.3074 66.5044 21.2627 66.5272C20.9074 66.7054 20.5483 66.8776 20.1827 67.0374C20.1802 67.0389 20.174 67.0404 20.1706 67.0425C19.7743 67.2153 19.375 67.3794 18.9713 67.5287C18.561 67.6808 18.1489 67.8222 17.7368 67.9484C20.7436 72.8426 68.1017 150.483 75.3482 161.42C75.7179 161.979 76.0457 162.467 76.33 162.874C76.4414 163.036 76.5484 163.188 76.646 163.326C78.2336 165.514 79.0474 166.821 81.5797 166.153C81.6164 166.142 81.6555 166.127 81.6923 166.116C83.1499 165.657 84.9123 164.628 86.1028 163.36C86.6192 162.809 87.0286 162.215 87.2544 161.602C87.5724 161.116 87.1127 159.706 86.0315 157.527C85.791 157.043 85.5213 156.522 85.2199 155.963C79.9606 146.171 41.4859 85.8104 27.2271 62.0575Z" fill="#513224"/>
<g id="Group_8">
<path id="Vector_9" d="M23.606 65.1507C23.2616 65.3867 22.9065 65.6129 22.5445 65.828C22.9079 65.6132 23.2616 65.3867 23.606 65.1507Z" fill="#231F20"/>
</g>
<g id="Group_9">
<path id="Vector_10" d="M24.653 64.3814C24.321 64.645 23.9771 64.8971 23.6231 65.1403C23.9777 64.898 24.321 64.645 24.653 64.3814Z" fill="#231F20"/>
</g>
<g id="Group_10">
<path id="Vector_11" d="M21.4003 66.4588C21.7593 66.2749 22.1113 66.08 22.4587 65.8774C22.1127 66.0803 21.7593 66.2749 21.4003 66.4588Z" fill="#231F20"/>
</g>
<g id="Group_11">
<path id="Vector_12" d="M20.1827 67.0374C20.5483 66.8776 20.9074 66.7054 21.2628 66.5272C20.9074 66.7054 20.5475 66.8781 20.1827 67.0374Z" fill="#231F20"/>
</g>
</g>
<g id="Group_12">
<g id="Group_13">
<path id="Vector_13" d="M10.8266 72.8068C10.8309 72.8042 10.8356 72.8024 10.8396 72.8011C11.2051 72.6414 11.5647 72.47 11.9196 72.291C11.9651 72.2676 12.0122 72.2468 12.0577 72.2234C12.4166 72.0396 12.7701 71.845 13.1161 71.6421C13.145 71.6242 13.1727 71.6083 13.2019 71.5926C13.5647 71.377 13.9198 71.1508 14.2642 70.9148C14.2693 70.9117 14.2753 70.908 14.2812 70.9043C14.6353 70.6612 14.9783 70.4096 15.3112 70.1455C15.678 69.8545 16.0265 69.549 16.3612 69.2344C16.4812 69.1204 16.6067 69.0077 16.7215 68.891C16.8366 68.7766 16.9459 68.6586 17.0544 68.5411C17.3115 68.2626 17.5625 67.982 17.7882 67.6888C17.0883 66.8117 13.8116 64.1216 10.2372 61.4859C9.01465 62.5516 7.479 63.3993 5.8961 64.0751C6.53629 67.0666 7.36335 70.5761 8.19587 73.3936C8.24575 73.4745 8.31402 73.5851 8.39226 73.7119C8.80385 73.5848 9.2168 73.4428 9.62673 73.2921C10.03 73.142 10.4303 72.9796 10.8266 72.8068Z" fill="#FAB697"/>
</g>
<g id="Group_14">
<path id="Vector_14" d="M10.2377 61.4868C8.36201 60.1037 6.40589 58.7349 4.69724 57.653C4.61581 57.601 5.12055 60.4586 5.89663 64.076C7.47953 63.4001 9.01518 62.5525 10.2377 61.4868Z" fill="#231F20"/>
</g>
<path id="Vector_15" d="M10.8266 72.8068C10.4298 72.9787 10.0291 73.1425 9.62726 73.293C10.031 73.1437 10.4303 72.9796 10.8266 72.8068Z" fill="#D33F37"/>
<path id="Vector_16" d="M16.7215 68.891C16.8355 68.7748 16.9464 68.6594 17.0544 68.5411C16.9459 68.6586 16.8365 68.7765 16.7215 68.891Z" fill="#D33F37"/>
<path id="Vector_17" d="M16.3612 69.2344C16.026 69.5481 15.6775 69.8536 15.3112 70.1455C15.6772 69.855 16.0272 69.5521 16.3612 69.2344Z" fill="#D33F37"/>
<g id="Group_15">
<path id="Vector_18" d="M17.8853 67.8216C17.863 67.7836 17.828 67.7382 17.7895 67.6892C17.5621 67.9834 17.3138 68.2647 17.0557 68.5414C16.9472 68.6589 16.836 68.7757 16.7229 68.8913C16.6058 69.0082 16.483 69.1215 16.3625 69.2347C16.0289 69.551 15.6794 69.8548 15.3125 70.1458C14.9796 70.4099 14.6372 70.6624 14.2826 70.9046C14.2766 70.9083 14.2715 70.9115 14.2655 70.9151C13.9203 71.1517 13.5674 71.3776 13.2032 71.5929C13.1746 71.6094 13.1468 71.6254 13.1174 71.6424C12.77 71.845 12.4185 72.0407 12.059 72.2237C12.0127 72.2476 11.9664 72.2679 11.9209 72.2913C11.5655 72.4695 11.2065 72.6417 10.8409 72.8014C10.8375 72.8035 10.8322 72.8045 10.8279 72.8071C10.4317 72.9799 10.0324 73.144 9.62859 73.2933C9.21834 73.4454 8.80709 73.5863 8.39412 73.713C11.401 78.6072 58.759 156.248 66.0047 167.185C66.3744 167.744 66.7022 168.232 66.9865 168.639C67.0979 168.801 67.2049 168.953 67.3025 169.091C68.8901 171.279 69.7039 172.586 72.2362 171.918C72.2729 171.907 72.312 171.893 72.3496 171.881C73.8072 171.421 75.5704 170.392 76.7601 169.124C77.2765 168.573 77.6868 167.979 77.9117 167.367C78.2297 166.881 77.7709 165.47 76.6888 163.292C76.4484 162.807 76.1786 162.286 75.8772 161.727C70.6179 151.935 32.1433 91.575 17.8853 67.8216Z" fill="#231F20"/>
</g>
<g id="Group_16">
<path id="Vector_19" d="M14.2642 70.9148C13.9198 71.1508 13.5647 71.377 13.2019 71.5926C13.5652 71.3779 13.9181 71.1519 14.2642 70.9148Z" fill="#231F20"/>
</g>
<g id="Group_17">
<path id="Vector_20" d="M15.3103 70.146C14.9774 70.4101 14.6344 70.6617 14.2804 70.9049C14.635 70.6626 14.9783 70.4096 15.3103 70.146Z" fill="#231F20"/>
</g>
<g id="Group_18">
<path id="Vector_21" d="M12.0577 72.2234C12.4166 72.0395 12.7687 71.8446 13.1161 71.642C12.7701 71.8449 12.4157 72.0401 12.0577 72.2234Z" fill="#231F20"/>
</g>
<g id="Group_19">
<path id="Vector_22" d="M10.8401 72.8019C11.2057 72.6422 11.5647 72.47 11.9201 72.2918C11.5647 72.47 11.2048 72.6427 10.8401 72.8019Z" fill="#231F20"/>
</g>
</g>
<g id="Group_20">
<g id="Group_21">
<path id="Vector_23" d="M29.6269 61.2066C29.6303 61.2045 29.6351 61.2028 29.639 61.2015C30.0046 61.0417 30.3642 60.8704 30.719 60.6914C30.7637 60.6685 30.8108 60.6477 30.8563 60.6243C31.2152 60.4405 31.5695 60.2454 31.9146 60.043C31.9427 60.0256 31.9713 60.0092 32.0005 59.9935C32.3624 59.7784 32.7184 59.5517 33.0619 59.3163C33.0679 59.3126 33.073 59.3094 33.079 59.3058C33.433 59.0626 33.7769 58.8105 34.1089 58.5469C34.4758 58.2559 34.8242 57.9504 35.1598 57.6353C35.2798 57.5213 35.4053 57.4086 35.5201 57.2919C35.6352 57.1775 35.7445 57.0595 35.853 56.942C36.1092 56.6641 36.3602 56.3834 36.5867 56.0897C35.8869 55.2126 32.6102 52.5225 29.0357 49.8868C27.8132 50.9525 26.2776 51.8002 24.6938 52.4765C25.3349 55.4675 26.1611 58.9775 26.9936 61.795C27.0443 61.8754 27.1117 61.9865 27.19 62.1133C27.6016 61.9863 28.0145 61.8443 28.4245 61.6936C28.8294 61.5424 29.2306 61.3795 29.6269 61.2066Z" fill="#FAB697"/>
</g>
<path id="Vector_24" d="M29.038 49.8866C27.1614 48.504 25.2062 47.1348 23.4975 46.0529C23.4161 46.0009 23.9208 48.8585 24.6961 52.4763C26.2798 51.8 27.8155 50.9523 29.038 49.8866Z" fill="#499B7F"/>
<path id="Vector_25" d="M29.6269 61.2067C29.2292 61.3792 28.8294 61.5424 28.4276 61.6929C28.8313 61.5436 29.2306 61.3795 29.6269 61.2067Z" fill="#D33F37"/>
<path id="Vector_26" d="M35.5218 57.2909C35.6358 57.1747 35.7467 57.0593 35.8547 56.941C35.7462 57.0585 35.636 57.177 35.5218 57.2909Z" fill="#D33F37"/>
<path id="Vector_27" d="M35.1606 57.6348C34.8254 57.9485 34.4769 58.254 34.1097 58.5464C34.4775 58.2549 34.8275 57.952 35.1606 57.6348Z" fill="#D33F37"/>
<path id="Vector_28" d="M36.6847 56.222C36.6616 56.1845 36.6283 56.1381 36.5889 56.0896C36.3616 56.3838 36.1133 56.6651 35.8552 56.9418C35.7467 57.0593 35.6355 57.1761 35.5223 57.2917C35.4061 57.4081 35.2825 57.522 35.162 57.6351C34.8283 57.9514 34.4788 58.2552 34.1111 58.5467C33.7791 58.8103 33.4358 59.0633 33.0812 59.3056C33.0752 59.3093 33.0701 59.3124 33.0641 59.3161C32.7189 59.5526 32.366 59.7786 32.0027 59.9934C31.9741 60.0098 31.9454 60.0263 31.9168 60.0428C31.5695 60.2454 31.2179 60.4411 30.8584 60.6241C30.8129 60.6475 30.7659 60.6683 30.7212 60.6912C30.3658 60.8694 30.0059 61.0421 29.6412 61.2013C29.6386 61.2029 29.6325 61.2043 29.6291 61.2064C29.232 61.3798 28.8335 61.5434 28.4297 61.6926C28.0195 61.8447 27.6074 61.9862 27.1953 62.1124C30.2021 67.0065 77.5601 144.647 84.8058 155.585C85.1755 156.144 85.5042 156.631 85.7876 157.039C85.899 157.2 86.0061 157.353 86.1028 157.491C87.6904 159.679 88.505 160.986 91.0373 160.318C91.074 160.307 91.1131 160.292 91.1499 160.281C92.6075 159.821 94.3699 158.792 95.5604 157.524C96.0768 156.973 96.4862 156.38 96.712 155.767C97.03 155.28 96.5703 153.871 95.4883 151.692C95.2487 151.207 94.9781 150.687 94.6775 150.127C89.4174 140.336 50.9436 79.9749 36.6847 56.222Z" fill="#499B7F"/>
<g id="Group_22">
<path id="Vector_29" d="M33.0636 59.3152C32.7193 59.5512 32.3641 59.7774 32.0022 59.9925C32.3655 59.7777 32.7184 59.5517 33.0636 59.3152Z" fill="#231F20"/>
</g>
<g id="Group_23">
<path id="Vector_30" d="M34.1106 58.5459C33.7786 58.8095 33.4347 59.0616 33.0807 59.3048C33.4352 59.0625 33.7777 58.81 34.1106 58.5459Z" fill="#231F20"/>
</g>
<g id="Group_24">
<path id="Vector_31" d="M30.8571 60.6238C31.2169 60.4395 31.5681 60.2451 31.9155 60.0425C31.5704 60.2449 31.216 60.44 30.8571 60.6238Z" fill="#231F20"/>
</g>
<g id="Group_25">
<path id="Vector_32" d="M29.6404 61.2018C30.0059 61.0421 30.365 60.8699 30.7204 60.6917C30.365 60.8699 30.0051 61.0426 29.6404 61.2018Z" fill="#231F20"/>
</g>
</g>
<g id="Group_26">
<g id="Group_27">
<path id="Vector_33" d="M39.0845 55.3712C39.0879 55.3691 39.0935 55.3668 39.0966 55.3661C39.4622 55.2063 39.8217 55.035 40.1766 54.856C40.2221 54.8326 40.2692 54.8118 40.3147 54.7884C40.6736 54.6045 41.0271 54.4099 41.3731 54.207C41.4012 54.1897 41.4306 54.1727 41.4598 54.1571C41.8217 53.9419 42.1777 53.7152 42.5212 53.4798C42.5263 53.4766 42.5323 53.473 42.5383 53.4693C42.8923 53.2261 43.2362 52.974 43.5682 52.7104C43.935 52.4194 44.2835 52.1139 44.6182 51.7993C44.7382 51.6853 44.8637 51.5726 44.9786 51.456C45.0936 51.3415 45.2029 51.2235 45.3123 51.1055C45.5685 50.8276 45.8195 50.547 46.046 50.2533C45.3462 49.3761 42.0695 46.686 38.4942 44.0509C37.2725 45.116 35.736 45.9642 34.1531 46.6401C34.7942 49.631 35.6204 53.141 36.4529 55.9585C36.5028 56.0394 36.571 56.15 36.6493 56.2768C37.06 56.1503 37.4738 56.0078 37.8838 55.8571C38.287 55.707 38.6874 55.5445 39.0845 55.3712Z" fill="#FAB697"/>
</g>
<path id="Vector_34" d="M38.4947 44.0517C36.619 42.6686 34.6638 41.2993 32.9551 40.2174C32.8737 40.1654 33.3784 43.0231 34.1537 46.6409C35.7374 45.9645 37.273 45.1169 38.4947 44.0517Z" fill="#3364AA"/>
<path id="Vector_35" d="M39.0845 55.3712C38.6868 55.5437 38.287 55.707 37.8851 55.8574C38.2889 55.7082 38.6874 55.5446 39.0845 55.3712Z" fill="#D33F37"/>
<path id="Vector_36" d="M44.9785 51.4559C45.0925 51.3398 45.2034 51.2243 45.3122 51.1055C45.2029 51.2235 45.0936 51.3415 44.9785 51.4559Z" fill="#D33F37"/>
<path id="Vector_37" d="M44.6182 51.7993C44.283 52.1131 43.9345 52.4186 43.5682 52.7104C43.9342 52.42 44.2851 52.1165 44.6182 51.7993Z" fill="#D33F37"/>
<path id="Vector_38" d="M46.1415 50.3871C46.1192 50.3491 46.085 50.3032 46.0465 50.2541C45.8183 50.5489 45.57 50.8301 45.3127 51.1064C45.2043 51.2238 45.093 51.3407 44.979 51.4568C44.8628 51.5732 44.7392 51.687 44.6187 51.8002C44.2851 52.1165 43.9355 52.4203 43.5687 52.7113C43.2366 52.9749 42.8933 53.2279 42.5387 53.4701C42.5328 53.4738 42.5268 53.4775 42.5217 53.4806C42.1765 53.7172 41.8236 53.9431 41.4602 54.1579C41.4316 54.1744 41.403 54.1909 41.3736 54.2079C41.0262 54.4105 40.6755 54.6057 40.3152 54.7892C40.2697 54.8126 40.2226 54.8334 40.1771 54.8568C39.8217 55.035 39.4626 55.2072 39.0971 55.3669C39.0937 55.369 39.0884 55.37 39.085 55.3721C38.6878 55.5454 38.2894 55.709 37.8856 55.8583C37.4754 56.0103 37.0632 56.1518 36.6511 56.278C39.6571 61.1727 87.0151 138.813 94.2617 149.75C94.6314 150.309 94.96 150.796 95.2435 151.204C95.3549 151.366 95.4619 151.518 95.5595 151.656C97.1471 153.844 97.9609 155.151 100.494 154.483C100.531 154.472 100.57 154.457 100.607 154.446C102.065 153.986 103.827 152.957 105.017 151.689C105.534 151.138 105.943 150.545 106.169 149.932C106.487 149.445 106.027 148.036 104.946 145.857C104.705 145.372 104.436 144.851 104.135 144.292C98.875 134.5 60.4011 74.1395 46.1415 50.3871Z" fill="#3364AA"/>
<g id="Group_28">
<path id="Vector_39" d="M42.5212 53.4798C42.1768 53.7158 41.8217 53.9419 41.4597 54.157C41.8222 53.9428 42.176 53.7163 42.5212 53.4798Z" fill="#231F20"/>
</g>
<g id="Group_29">
<path id="Vector_40" d="M43.5682 52.7104C43.2361 52.9741 42.8923 53.2262 42.5382 53.4693C42.8928 53.227 43.2353 52.9746 43.5682 52.7104Z" fill="#231F20"/>
</g>
<g id="Group_30">
<path id="Vector_41" d="M40.3147 54.7884C40.6745 54.604 41.0257 54.4096 41.3731 54.207C41.0271 54.4099 40.6736 54.6045 40.3147 54.7884Z" fill="#231F20"/>
</g>
</g>
<g id="Group_31">
<g id="Group_32">
<path id="Vector_42" d="M48.5412 49.5362C48.5446 49.5341 48.5502 49.5318 48.5542 49.5305C48.9197 49.3708 49.2793 49.1994 49.6333 49.0209C49.6788 48.9976 49.7259 48.9767 49.7714 48.9534C50.1303 48.7695 50.4838 48.5749 50.8298 48.372C50.8587 48.3541 50.8873 48.3377 50.9165 48.322C51.2784 48.1069 51.6336 47.8807 51.978 47.6448C51.9831 47.6416 51.989 47.6379 51.995 47.6343C52.349 47.3911 52.6929 47.139 53.0249 46.8754C53.3918 46.5844 53.7403 46.2789 54.0749 45.9643C54.1949 45.8503 54.3196 45.7381 54.4353 45.6209C54.5512 45.5059 54.6605 45.388 54.769 45.2705C55.0252 44.9926 55.2762 44.7119 55.5028 44.4182C54.8029 43.5411 51.5262 40.851 47.9509 38.2158C46.7293 39.281 45.1936 40.1286 43.6099 40.805C44.25 43.7965 45.0771 47.306 45.9096 50.1235C45.9595 50.2044 46.0278 50.315 46.106 50.4418C46.5167 50.3153 46.9306 50.1728 47.3405 50.022C47.7446 49.8714 48.1449 49.709 48.5412 49.5362Z" fill="#FAB697"/>
</g>
<path id="Vector_43" d="M47.9522 38.2162C46.0765 36.8331 44.1213 35.4638 42.4126 34.3819C42.3312 34.3299 42.8359 37.1875 43.6112 40.8054C45.1949 40.129 46.7306 39.2814 47.9522 38.2162Z" fill="#49B4BB"/>
<path id="Vector_44" d="M48.5411 49.5362C48.1435 49.7087 47.7445 49.8714 47.3418 50.0224C47.7464 49.8726 48.1449 49.709 48.5411 49.5362Z" fill="#D33F37"/>
<path id="Vector_45" d="M54.4353 45.621C54.5501 45.5043 54.661 45.3889 54.769 45.2705C54.6605 45.388 54.5511 45.506 54.4353 45.621Z" fill="#D33F37"/>
<path id="Vector_46" d="M54.0758 45.9638C53.7406 46.2776 53.3921 46.5831 53.0258 46.8749C53.3926 46.5839 53.7427 46.281 54.0758 45.9638Z" fill="#D33F37"/>
<path id="Vector_47" d="M55.599 44.5515C55.5768 44.5135 55.5426 44.4677 55.5032 44.4191C55.275 44.7138 55.0267 44.9951 54.7695 45.2714C54.661 45.3888 54.5498 45.5056 54.4358 45.6218C54.3196 45.7382 54.1968 45.8515 54.0754 45.9652C53.7418 46.2815 53.3922 46.5853 53.0254 46.8763C52.6934 47.1399 52.35 47.3928 51.9955 47.6351C51.9895 47.6388 51.9835 47.6425 51.9784 47.6456C51.6332 47.8821 51.2803 48.1081 50.917 48.3229C50.8883 48.3394 50.8597 48.3559 50.8303 48.3729C50.4829 48.5754 50.1322 48.7707 49.7719 48.9542C49.7264 48.9776 49.6793 48.9984 49.6338 49.0218C49.2793 49.1994 48.9194 49.3721 48.5546 49.5314C48.5512 49.5335 48.5451 49.5349 48.5417 49.537C48.1446 49.7104 47.7461 49.874 47.3423 50.0232C46.9321 50.1753 46.5208 50.3163 46.1079 50.443C49.1139 55.3377 96.4719 132.978 103.718 143.915C104.088 144.474 104.417 144.961 104.7 145.369C104.812 145.531 104.919 145.683 105.016 145.821C106.604 148.009 107.418 149.316 109.951 148.648C109.987 148.637 110.027 148.622 110.063 148.611C111.522 148.151 113.284 147.122 114.475 145.854C114.991 145.303 115.401 144.709 115.626 144.096C115.943 143.61 115.484 142.201 114.403 140.022C114.162 139.537 113.892 139.016 113.592 138.457C108.333 128.665 69.8578 68.3044 55.599 44.5515Z" fill="#49B4BB"/>
<g id="Group_33">
<path id="Vector_48" d="M51.9788 47.6443C51.6344 47.8802 51.2793 48.1064 50.9173 48.3215C51.2798 48.1073 51.6327 47.8813 51.9788 47.6443Z" fill="#231F20"/>
</g>
<g id="Group_34">
<path id="Vector_49" d="M53.0249 46.8754C52.6929 47.139 52.349 47.3911 51.995 47.6343C52.3504 47.3915 52.6929 47.139 53.0249 46.8754Z" fill="#231F20"/>
</g>
<g id="Group_35">
<path id="Vector_50" d="M49.7722 48.9528C50.132 48.7684 50.4832 48.574 50.8306 48.3715C50.4846 48.5744 50.1311 48.769 49.7722 48.9528Z" fill="#231F20"/>
</g>
</g>
<g id="Group_36">
<g id="Group_37">
<path id="Vector_51" d="M57.9988 43.7008C58.0022 43.6987 58.007 43.6969 58.0109 43.6956C58.3765 43.5359 58.736 43.3645 59.0909 43.1855C59.1364 43.1621 59.1835 43.1413 59.229 43.1179C59.5879 42.9341 59.9414 42.7395 60.2874 42.5366C60.3155 42.5193 60.3449 42.5023 60.3741 42.4866C60.736 42.2715 61.0912 42.0453 61.4355 41.8094C61.4406 41.8062 61.4466 41.8025 61.4526 41.7988C61.8066 41.5557 62.1505 41.3036 62.4825 41.04C62.8493 40.749 63.1978 40.4435 63.5325 40.1289C63.6525 40.0149 63.7772 39.9027 63.8929 39.7855C64.0079 39.6711 64.1181 39.5526 64.2266 39.4351C64.4828 39.1572 64.7338 38.8765 64.9603 38.5828C64.2605 37.7057 60.9838 35.0155 57.4093 32.3799C56.1868 33.4456 54.6512 34.2932 53.0683 34.9691C53.7085 37.9605 54.5355 41.47 55.368 44.2876C55.4179 44.3684 55.4862 44.4791 55.5644 44.6059C55.976 44.4788 56.389 44.3368 56.7989 44.1861C57.2013 44.0365 57.6025 43.8736 57.9988 43.7008Z" fill="#FAB697"/>
</g>
<path id="Vector_52" d="M57.4099 32.3807C55.5342 30.9976 53.5789 29.6284 51.8694 28.547C51.788 28.495 52.2927 31.3526 53.0688 34.9699C54.6517 34.2941 56.1874 33.4464 57.4099 32.3807Z" fill="#E26883"/>
<path id="Vector_53" d="M57.9988 43.7008C57.6011 43.8733 57.2013 44.0365 56.7986 44.1875C57.2032 44.0377 57.6025 43.8736 57.9988 43.7008Z" fill="#D33F37"/>
<path id="Vector_54" d="M63.8928 39.7855C64.0068 39.6694 64.1186 39.5534 64.2265 39.4351C64.1181 39.5526 64.0079 39.6711 63.8928 39.7855Z" fill="#D33F37"/>
<path id="Vector_55" d="M63.5325 40.1289C63.1973 40.4426 62.8488 40.7481 62.4825 41.0399C62.8493 40.749 63.1994 40.446 63.5325 40.1289Z" fill="#D33F37"/>
<path id="Vector_56" d="M65.0566 38.7161C65.0344 38.6781 65.0002 38.6322 64.9608 38.5837C64.7335 38.8779 64.4852 39.1592 64.2271 39.4359C64.1186 39.5534 64.0073 39.6702 63.8934 39.7864C63.7771 39.9027 63.6544 40.0161 63.533 40.1297C63.1994 40.446 62.8498 40.7498 62.483 41.0408C62.151 41.3044 61.8076 41.5574 61.4531 41.7997C61.4479 41.8028 61.4411 41.807 61.436 41.8102C61.0899 42.0472 60.7379 42.2727 60.3745 42.4875C60.3459 42.5039 60.3173 42.5204 60.2879 42.5374C59.9405 42.74 59.5898 42.9352 59.2295 43.1188C59.184 43.1422 59.1369 43.163 59.0914 43.1864C58.736 43.3645 58.3769 43.5367 58.0114 43.6965C58.008 43.6986 58.0027 43.6995 57.9993 43.7016C57.6021 43.8749 57.2037 44.0385 56.7991 44.1883C56.3888 44.3404 55.9776 44.4813 55.5646 44.6081C58.5714 49.5022 105.929 127.143 113.175 138.08C113.545 138.64 113.874 139.126 114.157 139.534C114.268 139.696 114.375 139.848 114.473 139.986C116.061 142.174 116.874 143.481 119.407 142.813C119.444 142.802 119.482 142.788 119.519 142.777C120.977 142.317 122.739 141.288 123.93 140.02C124.446 139.469 124.856 138.875 125.081 138.262C125.399 137.776 124.94 136.366 123.858 134.188C123.618 133.703 123.347 133.182 123.047 132.623C117.79 122.829 79.3154 62.469 65.0566 38.7161Z" fill="#E26883"/>
<g id="Group_38">
<path id="Vector_57" d="M61.4355 41.8094C61.0912 42.0453 60.736 42.2715 60.3741 42.4866C60.7374 42.2718 61.0903 42.0459 61.4355 41.8094Z" fill="#231F20"/>
</g>
<g id="Group_39">
<path id="Vector_58" d="M62.4825 41.04C62.1504 41.3036 61.8058 41.5562 61.4525 41.7988C61.808 41.556 62.1504 41.3036 62.4825 41.04Z" fill="#231F20"/>
</g>
<g id="Group_40">
<path id="Vector_59" d="M59.229 43.1179C59.5888 42.9335 59.9409 42.7386 60.2874 42.5366C59.9414 42.7395 59.5879 42.9341 59.229 43.1179Z" fill="#231F20"/>
</g>
</g>
<g id="Group_41">
<g id="Group_42">
<path id="Vector_60" d="M67.4564 37.8653C67.4598 37.8632 67.4645 37.8614 67.4693 37.8596C67.834 37.7004 68.1945 37.5285 68.5485 37.35C68.594 37.3267 68.6411 37.3058 68.6866 37.2825C69.0455 37.0986 69.399 36.904 69.745 36.7011C69.7739 36.6832 69.8025 36.6668 69.8316 36.6511C70.1936 36.436 70.5487 36.2099 70.8931 35.9739C70.8982 35.9707 70.9042 35.967 70.9101 35.9634C71.2642 35.7202 71.608 35.4681 71.9401 35.2045C72.3069 34.9135 72.6554 34.608 72.9901 34.2934C73.1101 34.1794 73.2356 34.0667 73.3504 33.95C73.4655 33.8356 73.5748 33.7176 73.6841 33.5996C73.9404 33.3217 74.1914 33.041 74.4179 32.7473C73.7181 31.8702 70.4414 29.1801 66.8669 26.5444C65.6453 27.6096 64.1096 28.4572 62.5259 29.1336C63.166 32.1251 63.9931 35.6346 64.8256 38.4521C64.8755 38.5329 64.9429 38.6441 65.0212 38.7709C65.4328 38.6439 65.8457 38.5019 66.2556 38.3512C66.6589 38.201 67.0592 38.0386 67.4564 37.8653Z" fill="#FAB697"/>
</g>
<path id="Vector_61" d="M66.8666 26.5458C64.9909 25.1627 63.0356 23.7934 61.3261 22.712C61.2447 22.66 61.7495 25.5177 62.5255 29.135C64.1093 28.4586 65.6449 27.6109 66.8666 26.5458Z" fill="#D33F37"/>
<path id="Vector_62" d="M67.4564 37.8652C67.0596 38.0372 66.6597 38.2005 66.257 38.3514C66.6608 38.2022 67.0592 38.0386 67.4564 37.8652Z" fill="#D33F37"/>
<path id="Vector_63" d="M73.3504 33.95C73.4644 33.8339 73.5753 33.7184 73.6841 33.5996C73.5748 33.7176 73.4654 33.8356 73.3504 33.95Z" fill="#D33F37"/>
<path id="Vector_64" d="M72.9901 34.2934C72.6549 34.6072 72.3064 34.9127 71.9401 35.2045C72.3069 34.9135 72.657 34.6106 72.9901 34.2934Z" fill="#D33F37"/>
<path id="Vector_65" d="M74.5142 32.8806C74.492 32.8426 74.4578 32.7967 74.4184 32.7482C74.191 33.0424 73.9427 33.3237 73.6846 33.6004C73.5761 33.7179 73.4649 33.8347 73.3509 33.9509C73.2339 34.0678 73.1111 34.1811 72.9906 34.2942C72.657 34.6105 72.3074 34.9143 71.9406 35.2053C71.6085 35.4689 71.2652 35.7219 70.9106 35.9642C70.9047 35.9679 70.8987 35.9715 70.8936 35.9747C70.5484 36.2112 70.1955 36.4372 69.8321 36.652C69.8035 36.6684 69.7749 36.6849 69.7454 36.7019C69.3981 36.9045 69.0474 37.0998 68.6871 37.2833C68.6416 37.3067 68.5945 37.3275 68.549 37.3509C68.1944 37.5285 67.8345 37.7012 67.4698 37.8605L67.4681 37.8615C67.4647 37.8636 67.4602 37.864 67.4568 37.8661C67.0606 38.0389 66.6613 38.2031 66.2575 38.3523C65.8472 38.5044 65.436 38.6453 65.023 38.7721C68.0299 43.6662 115.388 121.307 122.634 132.244C123.003 132.804 123.332 133.29 123.615 133.698C123.727 133.86 123.834 134.012 123.931 134.15C125.519 136.338 126.334 137.645 128.865 136.977C128.903 136.966 128.942 136.951 128.978 136.941C130.436 136.48 132.198 135.452 133.389 134.183C133.905 133.632 134.315 133.039 134.541 132.426C134.858 131.94 134.399 130.53 133.317 128.352C133.076 127.867 132.807 127.346 132.506 126.786C127.247 116.994 88.7722 56.634 74.5142 32.8806Z" fill="#D33F37"/>
<g id="Group_43">
<path id="Vector_66" d="M70.8931 35.9738C70.5487 36.2098 70.1936 36.436 69.8316 36.6511C70.1941 36.4369 70.547 36.2109 70.8931 35.9738Z" fill="#231F20"/>
</g>
<g id="Group_44">
<path id="Vector_67" d="M71.9401 35.2045C71.608 35.4681 71.2642 35.7202 70.9101 35.9633C71.2647 35.721 71.6072 35.4686 71.9401 35.2045Z" fill="#231F20"/>
</g>
<g id="Group_45">
<path id="Vector_68" d="M68.6866 37.2824C69.0464 37.098 69.3976 36.9036 69.745 36.7011C69.3981 36.9045 69.0455 37.0986 68.6866 37.2824Z" fill="#231F20"/>
</g>
</g>
<g id="Group_46">
<g id="Group_47">
<path id="Vector_69" d="M76.913 32.0303C76.9164 32.0282 76.9212 32.0264 76.926 32.0246C77.2907 31.8654 77.6512 31.6935 78.006 31.5145C78.0515 31.4911 78.0986 31.4703 78.1441 31.4469C78.503 31.2631 78.8565 31.0685 79.2025 30.8656C79.2314 30.8477 79.26 30.8312 79.2892 30.8156C79.6511 30.6005 80.0063 30.3743 80.3506 30.1383C80.3558 30.1352 80.3617 30.1315 80.3677 30.1278C80.7217 29.8847 81.0656 29.6326 81.3976 29.369C81.7645 29.078 82.1129 28.7725 82.4476 28.4579C82.5676 28.3439 82.6931 28.2312 82.808 28.1145C82.923 28 83.0332 27.8815 83.1417 27.7641C83.3979 27.4861 83.6489 27.2055 83.8754 26.9118C83.1756 26.0346 79.8989 23.3445 76.3244 20.7089C75.1019 21.7746 73.5671 22.6217 71.9834 23.2981C72.6236 26.2895 73.4506 29.799 74.2831 32.6166C74.3339 32.6969 74.4013 32.808 74.4795 32.9348C74.8911 32.8078 75.3041 32.6658 75.714 32.5151C76.1156 32.366 76.5168 32.2031 76.913 32.0303Z" fill="#FAB697"/>
</g>
<path id="Vector_70" d="M76.3241 20.7102C74.4484 19.3271 72.4923 17.9584 70.7837 16.8764C70.7022 16.8244 71.207 19.6821 71.9831 23.2994C73.5668 22.623 75.1016 21.7759 76.3241 20.7102Z" fill="#F58124"/>
<path id="Vector_71" d="M76.913 32.0303C76.5162 32.2023 76.1156 32.366 75.7137 32.5165C76.1175 32.3672 76.5168 32.2031 76.913 32.0303Z" fill="#D33F37"/>
<path id="Vector_72" d="M82.8079 28.1145C82.9219 27.9983 83.0337 27.8824 83.1416 27.7641C83.0323 27.8821 82.9221 28.0006 82.8079 28.1145Z" fill="#D33F37"/>
<path id="Vector_73" d="M82.4467 28.4584C82.1116 28.7721 81.7631 29.0776 81.3967 29.3695C81.7644 29.078 82.1137 28.7755 82.4467 28.4584Z" fill="#D33F37"/>
<path id="Vector_74" d="M83.9709 27.0456C83.9478 27.0081 83.9136 26.9623 83.8751 26.9132C83.6477 27.2074 83.4003 27.4881 83.1413 27.7654C83.0328 27.8829 82.9216 27.9997 82.8076 28.1159C82.6906 28.2327 82.5686 28.3456 82.4473 28.4592C82.1136 28.7755 81.7641 29.0793 81.3972 29.3703C81.0652 29.6339 80.7219 29.8869 80.3673 30.1292C80.3614 30.1329 80.3554 30.1365 80.3503 30.1397C80.0051 30.3762 79.6522 30.6022 79.2888 30.817C79.2602 30.8334 79.2316 30.8499 79.2021 30.8669C78.8548 31.0695 78.504 31.2647 78.1438 31.4483C78.0982 31.4717 78.0512 31.4925 78.0057 31.5159C77.6503 31.694 77.2904 31.8667 76.9256 32.026L76.9239 32.027C76.9205 32.0291 76.9161 32.0295 76.9127 32.0316C76.5164 32.2045 76.1171 32.3686 75.7133 32.5178C75.3031 32.6699 74.8918 32.8109 74.4789 32.9376C77.4857 37.8317 124.844 115.472 132.09 126.409C132.46 126.969 132.789 127.455 133.072 127.863C133.183 128.025 133.29 128.178 133.387 128.315C134.975 130.504 135.789 131.811 138.321 131.143C138.358 131.131 138.398 131.117 138.434 131.106C139.892 130.646 141.654 129.617 142.845 128.349C143.361 127.798 143.771 127.204 143.996 126.591C144.314 126.105 143.855 124.695 142.773 122.517C142.532 122.032 142.263 121.511 141.962 120.952C136.704 111.159 98.2297 50.7985 83.9709 27.0456Z" fill="#F58124"/>
<g id="Group_48">
<path id="Vector_75" d="M80.3498 30.1388C80.0054 30.3748 79.6503 30.601 79.2883 30.8161C79.6516 30.6013 80.0045 30.3753 80.3498 30.1388Z" fill="#231F20"/>
</g>
<g id="Group_49">
<path id="Vector_76" d="M81.3967 29.3694C81.0647 29.6331 80.7209 29.8852 80.3668 30.1283C80.7222 29.8855 81.0647 29.6331 81.3967 29.3694Z" fill="#231F20"/>
</g>
<g id="Group_50">
<path id="Vector_77" d="M78.1432 31.4474C78.503 31.2631 78.8543 31.0687 79.2016 30.8661C78.8565 31.0685 78.503 31.2631 78.1432 31.4474Z" fill="#231F20"/>
</g>
</g>
<g id="Group_51">
<g id="Group_52">
<path id="Vector_78" d="M95.1066 20.8046C95.1108 20.802 95.1156 20.8002 95.1195 20.7989C95.4842 20.6397 95.8455 20.4673 96.1987 20.2893C96.2442 20.266 96.2913 20.2451 96.3368 20.2218C96.6966 20.0374 97.0492 19.8433 97.3952 19.6404C97.4232 19.6231 97.4527 19.6061 97.4818 19.5904C97.8438 19.3753 98.1989 19.1492 98.5433 18.9132C98.5484 18.91 98.5544 18.9064 98.5603 18.9027C98.9144 18.6595 99.2583 18.4074 99.5903 18.1438C99.9571 17.8528 100.305 17.5478 100.64 17.2327C100.76 17.1187 100.885 17.0066 101.001 16.8893C101.116 16.7749 101.226 16.6564 101.334 16.5389C101.591 16.2605 101.842 15.9803 102.068 15.6867C101.368 14.8095 98.0916 12.1194 94.5171 9.48372C93.2946 10.5494 91.759 11.3971 90.1761 12.0729C90.8163 15.0644 91.6433 18.5739 92.4758 21.3914C92.5266 21.4717 92.594 21.5829 92.6722 21.7097C93.0838 21.5826 93.4968 21.4406 93.9067 21.2899C94.3091 21.1404 94.7103 20.9774 95.1066 20.8046Z" fill="#FAB697"/>
</g>
<path id="Vector_79" d="M94.5177 9.48456C92.642 8.10146 90.6859 6.73273 88.9772 5.65079C88.8958 5.5988 89.4005 8.45644 90.1766 12.0738C91.7603 11.3974 93.296 10.5497 94.5177 9.48456Z" fill="#FCEEB8"/>
<path id="Vector_80" d="M95.1066 20.8046C94.7098 20.9765 94.3091 21.1403 93.9072 21.2908C94.311 21.1415 94.7103 20.9774 95.1066 20.8046Z" fill="#D33F37"/>
<path id="Vector_81" d="M101.001 16.8889C101.115 16.7727 101.227 16.6567 101.335 16.5384C101.227 16.6559 101.117 16.7744 101.001 16.8889Z" fill="#D33F37"/>
<path id="Vector_82" d="M100.641 17.2322C100.305 17.5465 99.9575 17.8514 99.5911 18.1433C99.958 17.8523 100.307 17.5499 100.641 17.2322Z" fill="#D33F37"/>
<path id="Vector_83" d="M102.164 15.8199C102.142 15.782 102.107 15.7366 102.069 15.6875C101.841 15.9817 101.593 16.263 101.335 16.5398C101.226 16.6572 101.115 16.7741 101.001 16.8902C100.885 17.0066 100.762 17.1199 100.641 17.2336C100.306 17.5504 99.9576 17.8537 99.5908 18.1447C99.2587 18.4083 98.9154 18.6613 98.5608 18.9035C98.5549 18.9072 98.5489 18.9109 98.5438 18.914C98.1977 19.1511 97.8457 19.3765 97.4823 19.5913C97.4537 19.6078 97.4251 19.6243 97.3957 19.6413C97.0483 19.8439 96.6976 20.0391 96.3373 20.2226C96.2918 20.246 96.2447 20.2668 96.1992 20.2902C95.8447 20.4678 95.4847 20.6406 95.12 20.7998C95.1166 20.8019 95.1113 20.8028 95.1071 20.8054C94.7108 20.9783 94.3115 21.1424 93.9077 21.2917C93.4975 21.4437 93.0862 21.5847 92.6732 21.7114C95.6801 26.6055 143.037 104.247 150.284 115.184C150.653 115.743 150.981 116.23 151.266 116.638C151.377 116.799 151.483 116.952 151.582 117.089C153.169 119.277 153.983 120.585 156.515 119.917C156.553 119.905 156.591 119.891 156.628 119.88C158.085 119.42 159.848 118.391 161.038 117.123C161.555 116.572 161.964 115.979 162.19 115.366C162.508 114.879 162.049 113.469 160.967 111.291C160.727 110.806 160.456 110.286 160.155 109.726C154.898 99.933 116.424 39.5723 102.164 15.8199Z" fill="#FCEEB8"/>
<g id="Group_53">
<path id="Vector_84" d="M98.5442 18.9127C98.1998 19.1487 97.8447 19.3748 97.4827 19.59C97.8452 19.3757 98.1981 19.1497 98.5442 18.9127Z" fill="#231F20"/>
</g>
<g id="Group_54">
<path id="Vector_85" d="M99.5911 18.1433C99.2591 18.4069 98.9152 18.659 98.5612 18.9022C98.9158 18.6599 99.2582 18.4074 99.5911 18.1433Z" fill="#231F20"/>
</g>
<g id="Group_55">
<path id="Vector_86" d="M96.3368 20.2218C96.6966 20.0374 97.0478 19.843 97.3952 19.6404C97.0492 19.8434 96.6966 20.0374 96.3368 20.2218Z" fill="#231F20"/>
</g>
</g>
<g id="Group_56">
<g id="Group_57">
<path id="Vector_87" d="M86.2557 26.2657C86.2591 26.2636 86.2639 26.2618 86.2687 26.26C86.6334 26.1008 86.9939 25.9289 87.3487 25.7499C87.3942 25.7266 87.4405 25.7063 87.4868 25.6824C87.8457 25.4985 88.1992 25.3039 88.5452 25.101C88.5733 25.0837 88.6019 25.0672 88.631 25.0516C88.9938 24.8359 89.349 24.6098 89.6934 24.3738C89.6985 24.3706 89.7044 24.3669 89.7104 24.3633C90.0644 24.1201 90.4083 23.868 90.7403 23.6044C91.1072 23.3134 91.4557 23.0079 91.7912 22.6928C91.9112 22.5788 92.0358 22.4666 92.1515 22.3494C92.2666 22.235 92.3767 22.1164 92.4844 21.9995C92.7414 21.721 92.9925 21.4404 93.2182 21.1472C92.5183 20.2701 89.2416 17.58 85.6663 14.9448C84.4438 16.0105 82.909 16.8576 81.3252 17.534C81.9654 20.5255 82.7925 24.035 83.625 26.8525C83.6757 26.9328 83.7432 27.044 83.8214 27.1708C84.233 27.0438 84.6459 26.9018 85.0559 26.7511C85.4591 26.601 85.8595 26.4385 86.2557 26.2657Z" fill="#FAB697"/>
</g>
<path id="Vector_88" d="M85.6668 14.9457C83.7911 13.5626 81.8359 12.1933 80.1264 11.1119C80.0449 11.0599 80.5497 13.9176 81.3258 17.5349C82.9095 16.8585 84.4443 16.0114 85.6668 14.9457Z" fill="#F9B41D"/>
<path id="Vector_89" d="M86.2557 26.2657C85.8589 26.4377 85.4583 26.6015 85.0564 26.7519C85.4602 26.6026 85.8595 26.4385 86.2557 26.2657Z" fill="#D33F37"/>
<path id="Vector_90" d="M92.1507 22.3499C92.2647 22.2338 92.3765 22.1178 92.4836 22C92.3759 22.1169 92.2649 22.236 92.1507 22.3499Z" fill="#D33F37"/>
<path id="Vector_91" d="M91.7903 22.6933C91.4543 23.0076 91.1058 23.3131 90.7394 23.6049C91.1063 23.314 91.4564 23.011 91.7903 22.6933Z" fill="#D33F37"/>
<path id="Vector_92" d="M93.3136 21.281C93.2905 21.2436 93.2563 21.1977 93.2178 21.1486C92.9904 21.4428 92.7422 21.7241 92.484 22.0009C92.3764 22.1178 92.2643 22.2352 92.1512 22.3508C92.035 22.4671 91.9122 22.5805 91.7908 22.6942C91.4564 23.011 91.1068 23.3148 90.74 23.6058C90.4071 23.8699 90.0646 24.1223 89.71 24.3646C89.7041 24.3683 89.699 24.3715 89.693 24.3751C89.3478 24.6117 88.9949 24.8376 88.6307 25.0529C88.6029 25.0689 88.5743 25.0854 88.5448 25.1024C88.1966 25.3055 87.8459 25.5007 87.4865 25.6837C87.4401 25.7076 87.3939 25.7279 87.3484 25.7513C86.993 25.9295 86.6339 26.1017 86.2684 26.2614C86.265 26.2635 86.2596 26.2644 86.2562 26.2665C85.86 26.4394 85.4607 26.6035 85.0569 26.7528C84.6466 26.9048 84.2354 27.0458 83.8224 27.1725C86.8293 32.0666 134.187 109.707 141.434 120.644C141.804 121.203 142.131 121.691 142.416 122.098C142.527 122.26 142.633 122.413 142.731 122.55C144.318 124.738 145.132 126.046 147.665 125.377C147.702 125.366 147.741 125.351 147.778 125.341C149.236 124.881 150.998 123.852 152.188 122.584C152.704 122.033 153.114 121.439 153.34 120.826C153.658 120.34 153.198 118.93 152.117 116.752C151.877 116.267 151.607 115.746 151.306 115.187C146.047 105.394 107.572 45.034 93.3136 21.281Z" fill="#F9B41D"/>
<g id="Group_58">
<path id="Vector_93" d="M89.6925 24.3743C89.3481 24.6102 88.993 24.8364 88.6302 25.0521C88.9943 24.8367 89.3472 24.6108 89.6925 24.3743Z" fill="#231F20"/>
</g>
<g id="Group_59">
<path id="Vector_94" d="M90.7395 23.6049C90.4066 23.8691 90.0636 24.1206 89.7096 24.3638C90.065 24.121 90.4066 23.8691 90.7395 23.6049Z" fill="#231F20"/>
</g>
<g id="Group_60">
<path id="Vector_95" d="M87.486 25.6829C87.8449 25.499 88.197 25.3041 88.5443 25.1015C88.1992 25.3039 87.8457 25.4985 87.486 25.6829Z" fill="#231F20"/>
</g>
</g>
</g>
<g id="Group_61">
<path id="Vector_96" d="M146.368 86.9713L52.1667 145.095L17.3522 88.6713L111.278 30.7176L146.368 86.9713Z" fill="#FCEEB8"/>
<g id="Group_62">
<g id="Group_63">
<g id="Group_64">
<path id="Vector_97" d="M52.2667 90.2662C38.6737 90.5972 39.2655 108.256 47.1641 115.449C50.9949 118.938 56.7652 120.632 61.7966 119.034C67.4448 117.24 70.0916 111.913 69.6743 106.237C69.3914 102.391 63.3917 102.524 63.6751 106.381C63.9017 109.462 63.1149 112.382 59.8777 113.342C56.8929 114.227 53.4958 113.098 51.2498 111.054C47.3665 107.519 44.5641 96.457 52.4094 96.2659C56.2776 96.1705 56.1295 90.1717 52.2667 90.2662Z" fill="#3364AA"/>
</g>
</g>
<g id="Group_65">
<g id="Group_66">
<path id="Vector_98" d="M67.5831 88.9634C61.324 89.4895 57.9395 94.842 59.6816 100.827C61.119 105.769 66.4725 110.616 71.9422 109.039C76.9291 107.601 78.3815 101.616 77.509 97.0862C76.557 92.1439 72.7165 88.4962 67.5831 88.9634C63.7493 89.3125 63.876 95.3128 67.7267 94.9626C68.8994 94.856 69.0753 94.6593 69.8943 95.181C70.8174 95.7688 71.3205 96.906 71.5722 97.9422C71.9935 99.6763 71.7409 102.541 70.4761 103.199C70.0535 103.418 69.0195 103.213 68.1946 102.75C67.1016 102.136 66.2615 101.177 65.748 100.028C64.77 97.8434 64.933 95.1977 67.7267 94.9626C71.5651 94.64 71.4354 88.6404 67.5831 88.9634Z" fill="#3364AA"/>
</g>
</g>
<g id="Group_67">
<g id="Group_68">
<path id="Vector_99" d="M88.2116 73.1543C81.953 73.6812 78.5685 79.0338 80.31 85.0176C81.7475 89.9601 87.101 94.8069 92.5707 93.2298C97.5575 91.792 99.01 85.8067 98.1375 81.2771C97.1858 76.3335 93.3455 72.688 88.2116 73.1543C84.3773 73.5026 84.5053 79.5032 88.3552 79.1535C89.5279 79.0469 89.7038 78.8502 90.5233 79.3727C91.4464 79.9605 91.9495 81.0977 92.2012 82.134C92.6225 83.8681 92.3699 86.7324 91.1051 87.3905C90.6825 87.6102 89.6485 87.4045 88.8236 86.9417C87.7306 86.3283 86.8905 85.3684 86.377 84.22C85.3995 82.036 85.5578 79.3884 88.3552 79.1535C92.1939 78.8296 92.0642 72.83 88.2116 73.1543Z" fill="#3364AA"/>
</g>
</g>
<g id="Group_69">
<g id="Group_70">
<path id="Vector_100" d="M66.8765 77.5021C70.9557 83.2316 74.6377 89.2884 78.2818 95.2992C80.957 99.713 84.9726 104.625 90.6125 102.01C94.108 100.389 90.9272 95.2967 87.4619 96.9038C86.0685 97.5497 82.5464 90.6798 81.9953 89.7637C78.8533 84.544 75.518 79.3156 71.9827 74.3515C69.7538 71.2228 64.6312 74.3507 66.8765 77.5021Z" fill="#3364AA"/>
</g>
</g>
<g id="Group_71">
<g id="Group_72">
<path id="Vector_101" d="M92.4211 71.7649C97.0887 75.9857 100.183 81.5822 103.523 86.8386C105.592 90.0951 110.704 86.9539 108.629 83.688C105.004 77.9817 101.573 71.9509 96.5068 67.3698C93.6499 64.7849 89.5472 69.1659 92.4211 71.7649Z" fill="#3364AA"/>
</g>
</g>
<g id="Group_73">
<g id="Group_74">
<path id="Vector_102" d="M102.198 73.6147C100.93 71.5159 101.04 66.3484 104.564 66.8554C108.361 67.4008 109.774 61.5676 105.947 61.0164C101.889 60.4324 98.1961 62.0198 96.4549 65.886C94.8928 69.355 95.1249 73.5113 97.0915 76.7653C99.0888 80.0709 104.197 76.9229 102.198 73.6147Z" fill="#3364AA"/>
</g>
</g>
<g id="Group_75">
<g id="Group_76">
<path id="Vector_103" d="M104.823 53.1521C107.577 60.0929 110.33 67.0329 113.084 73.9738C114.498 77.538 120.269 75.8819 118.846 72.2929C116.092 65.3521 113.338 58.4121 110.584 51.4712C109.17 47.9069 103.399 49.563 104.823 53.1521Z" fill="#3364AA"/>
</g>
</g>
<g id="Group_77">
<g id="Group_78">
<path id="Vector_104" d="M119.916 82.1901C120.07 81.9882 120.234 81.8047 120.427 81.6397C120.22 81.81 120.012 81.9795 119.805 82.1493C119.914 82.0646 120.024 81.9919 120.147 81.9301C119.902 82.0392 119.657 82.1491 119.412 82.2581C119.514 82.2134 119.615 82.1806 119.726 82.1618C119.469 82.2013 119.213 82.2408 118.957 82.2812C119.433 82.2319 118.571 82.2349 118.499 82.2149C118.557 82.2308 117.643 81.8057 118.035 82.057C117.824 81.9067 117.612 81.7563 117.401 81.6054C117.468 81.6547 117.525 81.7088 117.579 81.7732C117.409 81.5657 117.239 81.3577 117.069 81.1503C117.107 81.2029 117.14 81.2566 117.169 81.315C117.06 81.0697 116.95 80.825 116.841 80.5797C116.874 80.6549 116.895 80.729 116.909 80.8085C116.869 80.5521 116.829 80.2957 116.789 80.0398C116.838 80.4938 116.87 79.4973 116.86 79.5355C116.774 79.8683 117.257 78.6994 117.025 79.0601C117.175 78.8486 117.325 78.6372 117.476 78.4265C117.434 78.4833 117.387 78.5319 117.333 78.5772C117.541 78.4069 117.749 78.2374 117.956 78.0671C117.891 78.1142 117.826 78.1519 117.753 78.1854C117.998 78.0764 118.243 77.9665 118.488 77.8574C118.401 77.8913 118.313 77.9148 118.221 77.933C118.478 77.8934 118.734 77.8539 118.99 77.8135C118.864 77.8315 118.733 77.8172 118.608 77.835C118.4 77.8649 119.294 77.9596 119.068 77.8864C118.981 77.8587 118.871 77.8515 118.783 77.8328C119.404 78.2807 120.025 78.7285 120.645 79.1763C120.52 78.9738 120.395 78.7704 120.27 78.5678C119.446 77.2326 117.482 76.6772 116.141 77.59C114.797 78.5055 114.28 80.287 115.163 81.7185C115.573 82.3823 115.98 82.9866 116.683 83.4001C117.593 83.9361 118.901 83.9161 119.902 83.6932C121.604 83.3152 122.845 81.7023 122.795 79.9652C122.746 78.2786 121.527 76.7627 119.882 76.3723C118.232 75.9807 116.522 76.7886 115.519 78.0996C115.031 78.7368 114.698 79.3853 114.717 80.2147C114.735 80.9594 115.097 81.8502 115.674 82.3409C116.816 83.3146 118.896 83.5246 119.916 82.1901Z" fill="#3364AA"/>
</g>
</g>
<path id="Vector_105" d="M130.589 76.2109C132.6 79.4695 131.478 83.8088 128.083 85.904L58.896 128.593C55.5012 130.688 51.119 129.745 49.1084 126.486L32.7246 99.9328C30.714 96.6742 31.8363 92.3343 35.2311 90.2397L104.418 47.5503C107.813 45.4556 112.195 46.399 114.205 49.6577L130.589 76.2109Z" stroke="#3364AA" stroke-width="2" stroke-miterlimit="10"/>
</g>
</g>
</g>
</g>
</g>
<defs>
<clipPath id="clip0_0_1">
<rect width="1440" height="6322" fill="white" transform="translate(-1320 -3720)"/>
</clipPath>
</defs>
</svg>
